<?xml version="1.0" encoding="utf-8"?>
<!-- Generator: Adobe Illustrator 22.0.1, SVG Export Plug-In . SVG Version: 6.00 Build 0)  -->
<svg version="1.1" id="Layer_1" xmlns="http://www.w3.org/2000/svg" xmlns:xlink="http://www.w3.org/1999/xlink" x="0px" y="0px"
	 viewBox="0 0 952.3 1751.7" style="enable-background:new 0 0 952.3 1751.7;" xml:space="preserve">
<style type="text/css">
	.st0{fill:#FFFFFF;stroke:#000000;stroke-width:2;}
	.st1{fill:#0000E5;}
	.st2{font-family:'ArialMT';}
	.st3{font-size:15px;}
	.st4{font-family:'AdobeSongStd-Light-GBpc-EUC-H';}
	.st5{enable-background:new    ;}
	.st6{fill:none;stroke:#000000;stroke-width:2.0013;}
	.st7{fill:none;stroke:#000000;stroke-width:2;}
</style>
<source>
	<![CDATA[
		Created with Raphaël 2.1.2(1) Raw Data （*.txt file)"Plot"Any Error?Check file format (no header)"Plot" -> "Sampling Rate"Uniformly spaced?Zero Mean?Detrended DataConventional?(5) Power Spectral Analysis(6) Evolutionary Spectral AnalysisWavelet AnalysisOptimal sedimentation rateRecognition of orbital cycles(8) "Filtering": isolate orbital cycles"Build Age Model"(9) Astronomical Tuning ("Age Scale")(3) Interpolation?Uniformly Sampling Rate Data(4) DetrendingLomb-Scargle Periodogram(7) Correlation Coefficient (COCO)evolutionary COCOTimeOpteTimeOpt(2) "Sort/Unique/Remove-empty"yesnoyesnoyesnoyesnoyesno
		
		]]>
</source>
<desc  style="-webkit-tap-highlight-color: rgba(0, 0, 0, 0);">Created with Raphaël 2.1.2</desc>
<path id="st" class="st0" d="M68.1,3.7h141.7c11,0,20,8.2,20,18.3l0,0c0,10.1-9,18.3-20,18.3H68.1c-11,0-20-8.2-20-18.3l0,0
	C48.1,11.9,57,3.7,68.1,3.7z"/>
<text transform="matrix(1 0 0 1 58.0682 27.1978)" class="st1 st2 st3">(1) Raw Data </text>
<text transform="matrix(1 0 0 1 150.5682 26.7722)" class="st1 st4 st3">（</text>
<text transform="matrix(1 0 0 1 165.5682 27.1978)" class="st1 st2 st3">*.txt file)</text>
<rect id="op_plot" x="110.7" y="91.4" class="st0" width="56.5" height="36.5"/>
<rect id="op_plot_1_" x="772.5" y="46.1" class="st0" width="38.5" height="24.9"/>
<text transform="matrix(1 0 0 1 120.6776 114.9453)" class="st2 st3">&quot;Plot&quot;</text>
<path id="cond_check" class="st0" d="M100.8,188.1l-38.1,19.1l76.3,38.1l76.3-38.1L138.9,169l-76.3,38.1"/>
<path id="cond_check_1_" class="st0" d="M777.9,154.5l-14.1,8.1l28.2,16.2l28.2-16.2L792,146.3l-28.2,16.2"/>
<text transform="matrix(1 0 0 1 105.7811 212.3533)" class="st2 st3">Any Error?</text>
<path id="io_check" class="st0" d="M21.8,357.1l-10,18.3H246l20-36.7H31.8L21.8,357.1"/>
<text transform="matrix(1 0 0 1 41.7948 362.3104)" class="st2 st3">Check data format (no header)</text>
<rect id="op_plotsample" x="331.3" y="188.8" class="st0" width="187.6" height="36.7"/>
<text transform="matrix(1 0 0 1 341.3143 212.3397)" class="st2 st3">&quot;Plot&quot; -&gt; &quot;Sampling Rate&quot;</text>
<path id="cond_sampleeven" class="st0" d="M367.3,308.4l-57.8,28.9l115.7,57.8l115.7-57.8l-115.7-57.8l-115.7,57.8"/>
<text transform="matrix(1 0 0 1 372.2869 342.5038)" class="st2 st3">Uniformly spaced?</text>
<path id="cond_trend" class="st0" d="M383.5,792.1L342,812.9l83.1,41.6l83.1-41.6l-83.1-41.6L342,812.9"/>
<text transform="matrix(1 0 0 1 388.5468 818.1715)" class="st2 st3">Zero Mean?</text>
<rect id="op_datadetrend" x="362.2" y="914.8" class="st0" width="125.9" height="36.5"/>
<text transform="matrix(1 0 0 1 372.1737 938.3235)" class="st2 st3">Detrended Data</text>
<path id="cond_convention" class="st0" d="M377.9,1015.2l-47.2,23.6l94.4,47.2l94.4-47.2l-94.4-47.2l-94.4,47.2"/>
<text transform="matrix(1 0 0 1 382.91 1044.0673)" class="st2 st3">Conventional?</text>
<path id="io_spectal" class="st0" d="M313,1161.6l-10,18.3h224.2l20-36.7H323L313,1161.6"/>
<text transform="matrix(1 0 0 1 333.0096 1166.7531)" class="st1 st2 st3">(5) Power Spectral Analysis</text>
<path id="io_evofft" class="st0" d="M293,1236.9l-10,18.3h264.3l20-36.7H303L293,1236.9"/>
<path id="io_evofft_1_" class="st0" d="M293,1566.9l-10,18.3h264.3l20-36.7H303L293,1566.9"/>
<text transform="matrix(1 0 0 1 312.994 1242.0931)" class="st1 st2 st3">(6) Evolutionary Spectral Analysis</text>
<path id="io_wavelet" class="st0" d="M348.3,1324.4l-10,18.3h153.6l20-36.7H358.3L348.3,1324.4"/>
<path id="io_wavelet_1_" class="st0" d="M348.3,1652.2l-10,18.3h153.6l20-36.7H358.3L348.3,1652.2"/>
<text transform="matrix(1 0 0 1 368.2987 1329.5919)" class="st2 st3">Wavelet Analysis</text>
<rect id="op_sedrate" x="325.5" y="1387.8" class="st0" width="199.2" height="36.5"/>
<rect id="op_sedrate_1_" x="325.5" y="1463.4" class="st0" width="199.2" height="36.5"/>
<text transform="matrix(1 0 0 1 335.494 1411.2791)" class="st2 st3">Optimal sedimentation rate</text>
<text transform="matrix(1 0 0 1 331.744 1486.8193)" class="st2 st3">Recognition of orbital cycles</text>
<path id="io_cycles_1_" class="st0" d="M643,1730.3l-10,18.3h226.8l20-36.7H653L643,1730.3"/>
<text transform="matrix(1 0 0 1 653.5773 1735.5194)" class="st1 st2 st3">(10) Sedimentary Noise Model</text>
<text transform="matrix(1 0 0 1 310.5956 1571.4297)" class="st1 st2 st3">(8) &quot;Filtering&quot;: isolate orbital cycles</text>
<text transform="matrix(1 0 0 1 365.1815 1657.2618)" class="st2 st3">&quot;Build Age Model&quot;</text>
<path id="io_tuning" class="st0" d="M279.2,1730.3l-10,18.3H561l20-36.7H289.2L279.2,1730.3"/>
<text transform="matrix(1 0 0 1 299.1971 1735.4351)" class="st1 st2 st3">(9) Astronomical Tuning (&quot;Age Scale&quot;)</text>
<path id="cond_ls" class="st0" d="M371.3,556l-53.8,26.9L425,636.7l107.5-53.8L425,529.1l-107.5,53.8"/>
<text transform="matrix(1 0 0 1 376.3475 588.0629)" class="st1 st2 st3">(3) Interpolation?</text>
<rect id="io_interp" x="314.3" y="695.1" class="st0" width="221.7" height="36.7"/>
<text transform="matrix(1 0 0 1 324.2518 718.6002)" class="st2 st3">Uniform Sampling Rate Data</text>
<path id="io_ls" class="st0" d="M712.8,582.9l-10,18.3h223.4l20-36.7H722.8L712.8,582.9"/>
<text transform="matrix(1 0 0 1 732.7792 588.0571)" class="st2 st3">Lomb-Scargle Periodogram</text>
<path id="io_coco" class="st0" d="M594.6,1038.8l-10,18.3h269.8l20-36.7H604.6L594.6,1038.8"/>
<text transform="matrix(1 0 0 1 614.5682 1043.9833)" class="st1 st2 st3">(7) Correlation Coefficient (COCO)</text>
<path id="io_ecoco" class="st0" d="M644.4,1132.7l-10,18.3h170l20-36.7h-170L644.4,1132.7"/>
<text transform="matrix(1 0 0 1 664.4354 1137.8722)" class="st2 st3">evolutionary COCO</text>
<path id="io_timeopt" class="st0" d="M681,1208l-10,18.2h97l20-36.5h-97L681,1208"/>
<path id="io_timeopt_1_" class="st0" d="M773.3,110.6l-3.8,10.9h36.9l7.6-21.8h-36.9L773.3,110.6"/>
<text transform="matrix(1 0 0 1 700.9823 1213.2904)" class="st2 st3">TimeOpt</text>
<path id="io_etimeopt" class="st0" d="M676.8,1295.5l-10,18.2h105.3l20-36.5H686.8L676.8,1295.5"/>
<text transform="matrix(1 0 0 1 696.8182 1300.7111)" class="st2 st3">eTimeOpt</text>
<rect id="io_sue" x="306" y="452.5" class="st0" width="238.2" height="36.7"/>
<text transform="matrix(1 0 0 1 316.0096 476.0257)" class="st1 st2 st3">(2) &quot;Sort/Unique/Remove-empty&quot;</text>
<path class="st5" d="M0,0"/>
<g transform="rotate(180 1.5 1.5) scale(0.6,0.6)">
	<path id="raphael-marker-block-obj1203" d="M135.9,85.4l3,6l3-6H135.9z"/>
</g>
<path marker-end="url(#raphael-marker-endblock33-obj1204)" d="M138.9,470.2"/>
<path class="st5" d="M0,0"/>
<g transform="rotate(180 1.5 1.5) scale(0.6,0.6)">
	<path id="raphael-marker-block-obj1203_1_" d="M135.9,163l3,6l3-6H135.9z"/>
</g>
<path marker-end="url(#raphael-marker-endblock33-obj1204)" d="M138.9,396.2"/>
<path class="st5" d="M0,0"/>
<g transform="rotate(180 1.5 1.5) scale(0.6,0.6)">
	<path id="raphael-marker-block-obj1203_2_" d="M135.9,332.8l3,6l3-6H135.9z"/>
</g>
<path marker-end="url(#raphael-marker-endblock33-obj1204)" d="M138.9,226.4"/>
<text transform="matrix(1 0 0 1 143.9198 260.4881)" class="st2 st3">yes</text>
<path class="st5" d="M0,0"/>
<g transform="rotate(180 1.5 1.5) scale(0.6,0.6)">
	<path id="raphael-marker-block-obj1203_3_" d="M325.3,210.2l6-3l-6-3V210.2z"/>
</g>
<path marker-end="url(#raphael-marker-endblock33-obj1204)" d="M328.3,355"/>
<text transform="matrix(1 0 0 1 220.1971 202.4294)" class="st2 st3">no</text>
<path class="st5" d="M0,0"/>
<g transform="rotate(180 1.5 1.5) scale(0.6,0.6)">
	<path id="raphael-marker-block-obj1203_4_" d="M135.9,85.5l3,6l3-6H135.9z"/>
</g>
<path marker-end="url(#raphael-marker-endblock33-obj1204)" d="M138.9,470.2"/>
<path class="st5" d="M0,0"/>
<g transform="rotate(180 1.5 1.5) scale(0.6,0.6)">
	<path id="raphael-marker-block-obj1203_5_" d="M422.1,273.5l3,6l3-6H422.1z"/>
</g>
<path marker-end="url(#raphael-marker-endblock33-obj1204)" d="M425.1,285.7"/>
<path class="st5" d="M0,0"/>
<g transform="rotate(180 1.5 1.5) scale(0.6,0.6)">
	<path id="raphael-marker-block-obj1203_6_" d="M422.1,765.3l3,6l3-6H422.1z"/>
</g>
<path marker-end="url(#raphael-marker-endblock33-obj1204)" d="M425.1-380.4"/>
<text transform="matrix(1 0 0 1 545.7831 332.4998)" class="st2 st3">yes</text>
<text transform="matrix(1 0 0 1 840.1164 62.2164)" class="st2 st3">operation</text>
<text transform="matrix(1 0 0 1 840.3664 165.5887)" class="st2 st3">condition</text>
<text transform="matrix(1 0 0 1 840.1164 114.8167)" class="st2 st3">input/output</text>
<path class="st5" d="M0,0"/>
<g transform="rotate(180 1.5 1.5) scale(0.6,0.6)">
	<path id="raphael-marker-block-obj1203_7_" d="M422.1,446.5l3,6l3-6H422.1z"/>
</g>
<path marker-end="url(#raphael-marker-endblock33-obj1204)" d="M425.1,76.5"/>
<text transform="matrix(1 0 0 1 430.119 410.4139)" class="st2 st3">no</text>
<path class="st5" d="M0,0"/>
<g transform="rotate(180 1.5 1.5) scale(0.6,0.6)">
	<path id="raphael-marker-block-obj1203_8_" d="M422.1,908.8l3,6l3-6H422.1z"/>
</g>
<path marker-end="url(#raphael-marker-endblock33-obj1204)" d="M425.1-557.1"/>
<text transform="matrix(1 0 0 1 430.119 869.6598)" class="st2 st3">yes</text>
<path class="st5" d="M0,0"/>
<path id="io_detrend_1_" class="st0" d="M137.1,812.9l-10,18.3H263l20-36.7H147.1L137.1,812.9"/>
<text transform="matrix(1 0 0 1 157.119 818.0836)" class="st1 st2 st3">(4) Detrending</text>
<g transform="rotate(180 1.5 1.5) scale(0.6,0.6)">
	<path id="raphael-marker-block-obj1203_30_" d="M279.3,809.9l-6,3l6,3V809.9z"/>
</g>
<path marker-end="url(#raphael-marker-endblock33-obj1204)" d="M931.3-425"/>
<text transform="matrix(1 0 0 1 323.2517 808.1715)" class="st2 st3">no</text>
<path class="st5" d="M0,0"/>
<g transform="rotate(180 1.5 1.5) scale(0.6,0.6)">
	<path id="raphael-marker-block-obj1203_10_" d="M422.1,985.6l3,6l3-6H422.1z"/>
</g>
<path marker-end="url(#raphael-marker-endblock33-obj1204)" d="M425.1-658.3"/>
<path class="st5" d="M0,0"/>
<g transform="rotate(180 1.5 1.5) scale(0.6,0.6)">
	<path id="raphael-marker-block-obj1203_11_" d="M422.1,1137.2l3,6l3-6H422.1z"/>
</g>
<path marker-end="url(#raphael-marker-endblock33-obj1204)" d="M425.1-846.2"/>
<text transform="matrix(1 0 0 1 430.119 1101.1942)" class="st2 st3">yes</text>
<path class="st5" d="M0,0"/>
<g transform="rotate(180 1.5 1.5) scale(0.6,0.6)">
	<path id="raphael-marker-block-obj1203_12_" d="M588.6,1041.8l6-3l-6-3V1041.8z"/>
</g>
<path marker-end="url(#raphael-marker-endblock33-obj1204)" d="M591.6-708.5"/>
<text transform="matrix(1 0 0 1 524.537 1034.0731)" class="st2 st3">no</text>
<path class="st5" d="M0,0"/>
<g transform="rotate(180 1.5 1.5) scale(0.6,0.6)">
	<path id="raphael-marker-block-obj1203_13_" d="M422.1,1212.6l3,6l3-6H422.1z"/>
</g>
<path marker-end="url(#raphael-marker-endblock33-obj1204)" d="M425.1-976.3"/>
<path class="st5" d="M0,0"/>
<g transform="rotate(180 1.5 1.5) scale(0.6,0.6)">
	<path id="raphael-marker-block-obj1203_14_" d="M422.1,1300.1l3,6l3-6H422.1z"/>
</g>
<path marker-end="url(#raphael-marker-endblock33-obj1204)" d="M425.1-1106.5"/>
<path class="st5" d="M0,0"/>
<g transform="rotate(180 1.5 1.5) scale(0.6,0.6)">
	<path id="raphael-marker-block-obj1203_15_" d="M422.1,1373.5l3,6l3-6H422.1z"/>
</g>
<path marker-end="url(#raphael-marker-endblock33-obj1204)" d="M425.1-1236.7"/>
<path class="st5" d="M0,0"/>
<g transform="rotate(180 1.5 1.5) scale(0.6,0.6)">
	<path id="raphael-marker-block-obj1203_16_" d="M422.1,1446.8l3,6l3-6H422.1z"/>
</g>
<path marker-end="url(#raphael-marker-endblock33-obj1204)" d="M425.1-1366.8"/>
<path class="st5" d="M0,0"/>
<g transform="rotate(180 1.5 1.5) scale(0.6,0.6)">
	<path id="raphael-marker-block-obj1203_17_" d="M422.1,1534.3l3,6l3-6H422.1z"/>
</g>
<path marker-end="url(#raphael-marker-endblock33-obj1204)" d="M425.1-1496.9"/>
<path class="st5" d="M0,0"/>
<g transform="rotate(180 1.5 1.5) scale(0.6,0.6)">
	<path id="raphael-marker-block-obj1203_18_" d="M422.1,1627.8l3,6l3-6H422.1z"/>
</g>
<path marker-end="url(#raphael-marker-endblock33-obj1204)" d="M425.1-1627.1"/>
<path class="st5" d="M0,0"/>
<g transform="rotate(180 1.5 1.5) scale(0.6,0.6)">
	<path id="raphael-marker-block-obj1203_19_" d="M422.1,1705.9l3,6l3-6H422.1z"/>
</g>
<path marker-end="url(#raphael-marker-endblock33-obj1204)" d="M425.1-1757.2"/>
<path class="st5" d="M0,0"/>
<g transform="rotate(180 1.5 1.5) scale(0.6,0.6)">
	<path id="raphael-marker-block-obj1203_20_" d="M422.1,523.1l3,6l3-6H422.1z"/>
</g>
<path marker-end="url(#raphael-marker-endblock33-obj1204)" d="M425.1-18.2"/>
<path class="st5" d="M0,0"/>
<g transform="rotate(180 1.5 1.5) scale(0.6,0.6)">
	<path id="raphael-marker-block-obj1203_21_" d="M422.1,689.1l3,6l3-6H422.1z"/>
</g>
<path marker-end="url(#raphael-marker-endblock33-obj1204)" d="M425.1-273.5"/>
<text transform="matrix(1 0 0 1 430.119 651.8305)" class="st2 st3">yes</text>
<path class="st5" d="M0,0"/>
<g transform="rotate(180 1.5 1.5) scale(0.6,0.6)">
	<path id="raphael-marker-block-obj1203_22_" d="M706.8,585.9l6-3l-6-3V585.9z"/>
</g>
<path marker-end="url(#raphael-marker-endblock33-obj1204)" d="M1137.2-129.2"/>
<text transform="matrix(1 0 0 1 537.662 578.1469)" class="st2 st3">no</text>
<path class="st5" d="M0,0"/>
<g transform="rotate(180 1.5 1.5) scale(0.6,0.6)">
	<path id="raphael-marker-block-obj1203_23_" d="M422.1,765.3l3,6l3-6H422.1z"/>
</g>
<path marker-end="url(#raphael-marker-endblock33-obj1204)" d="M425.1-380.4"/>
<path class="st5" d="M0,0"/>
<g transform="rotate(180 1.5 1.5) scale(0.6,0.6)">
	<path id="raphael-marker-block-obj1203_24_" d="M422.1,908.8l3,6l3-6H422.1z"/>
</g>
<path marker-end="url(#raphael-marker-endblock33-obj1204)" d="M425.1-557.2"/>
<path class="st5" d="M0,0"/>
<g transform="rotate(180 1.5 1.5) scale(0.6,0.6)">
	<path id="raphael-marker-block-obj1203_25_" d="M726.5,1108.4l3,6l3-6H726.5z"/>
</g>
<path marker-end="url(#raphael-marker-endblock33-obj1204)" d="M729.5-817.3"/>
<path class="st5" d="M0,0"/>
<g transform="rotate(180 1.5 1.5) scale(0.6,0.6)">
	<path id="raphael-marker-block-obj1203_26_" d="M726.5,1183.8l3,6l3-6H726.5z"/>
</g>
<path marker-end="url(#raphael-marker-endblock33-obj1204)" d="M729.5-947.5"/>
<path class="st5" d="M0,0"/>
<g transform="rotate(180 1.5 1.5) scale(0.6,0.6)">
	<path id="raphael-marker-block-obj1203_27_" d="M726.5,1271.2l3,6l3-6H726.5z"/>
</g>
<path marker-end="url(#raphael-marker-endblock33-obj1204)" d="M729.5-1077.6"/>
<path class="st5" d="M0,0"/>
<g transform="rotate(180 1.5 1.5) scale(0.6,0.6)">
	<path id="raphael-marker-block-obj1203_28_" d="M422.1,1373.5l3,6l3-6H422.1z"/>
</g>
<path marker-end="url(#raphael-marker-endblock33-obj1204)" d="M425.1-1236.8"/>
<path class="st5" d="M0,0"/>
<g transform="rotate(180 1.5 1.5) scale(0.6,0.6)">
	<path id="raphael-marker-block-obj1203_29_" d="M422.1,523.1l3,6l3-6H422.1z"/>
</g>
<path marker-end="url(#raphael-marker-endblock33-obj1204)" d="M425.1-18.2"/>
<g>
	<g>
		<line class="st6" x1="138.9" y1="40.4" x2="138.9" y2="79.5"/>
		<g>
			<polygon points="131.5,73.8 138.9,77 146.3,73.8 138.9,91.4 			"/>
		</g>
	</g>
</g>
<g>
	<g>
		<line class="st6" x1="138.9" y1="127.9" x2="138.9" y2="152.9"/>
		<g>
			<polygon points="131.5,147.2 138.9,150.4 146.3,147.2 138.9,164.8 			"/>
		</g>
	</g>
</g>
<g>
	<g>
		<line class="st6" x1="425.1" y1="226.4" x2="425.1" y2="265.4"/>
		<g>
			<polygon points="425.1,279.5 417,259.6 425.1,264.3 433.2,259.6 			"/>
		</g>
	</g>
</g>
<g>
	<g>
		<line class="st6" x1="425.1" y1="395.2" x2="425.1" y2="438.4"/>
		<g>
			<polygon points="425.1,452.5 417,432.6 425.1,437.3 433.2,432.6 			"/>
		</g>
	</g>
</g>
<g>
	<g>
		<line class="st6" x1="425.1" y1="489.2" x2="425.1" y2="515.1"/>
		<g>
			<polygon points="425.1,529.2 417,509.3 425.1,514 433.2,509.3 			"/>
		</g>
	</g>
</g>
<g>
	<g>
		<line class="st6" x1="425.1" y1="636.7" x2="425.1" y2="681"/>
		<g>
			<polygon points="425.1,695.1 417,675.2 425.1,679.9 433.2,675.2 			"/>
		</g>
	</g>
</g>
<g>
	<g>
		<line class="st6" x1="425.1" y1="731.8" x2="425.1" y2="757.8"/>
		<g>
			<polygon points="425.1,771.9 417,752 425.1,756.7 433.2,752 			"/>
		</g>
	</g>
</g>
<g>
	<g>
		<line class="st6" x1="425.1" y1="951.3" x2="425.1" y2="977.3"/>
		<g>
			<polygon points="425.1,991.4 417,971.5 425.1,976.2 433.2,971.5 			"/>
		</g>
	</g>
</g>
<g>
	<g>
		<line class="st6" x1="425.1" y1="854.2" x2="425.1" y2="900.7"/>
		<g>
			<polygon points="425.1,914.8 417,894.9 425.1,899.6 433.2,894.9 			"/>
		</g>
	</g>
</g>
<g>
	<g>
		<line class="st6" x1="425.1" y1="1086" x2="425.1" y2="1126.6"/>
		<g>
			<polygon points="425.1,1140.7 417,1120.8 425.1,1125.5 433.2,1120.8 			"/>
		</g>
	</g>
</g>
<g>
	<g>
		<line class="st6" x1="425.1" y1="1179.9" x2="425.1" y2="1203"/>
		<g>
			<polygon points="425.1,1217.1 417,1197.2 425.1,1201.9 433.2,1197.2 			"/>
		</g>
	</g>
</g>
<g>
	<g>
		<line class="st6" x1="425.1" y1="1255.2" x2="425.1" y2="1290.5"/>
		<g>
			<polygon points="425.1,1304.6 417,1284.7 425.1,1289.4 433.2,1284.7 			"/>
		</g>
	</g>
</g>
<g>
	<g>
		<line class="st6" x1="425.1" y1="1424.3" x2="425.1" y2="1449.1"/>
		<g>
			<polygon points="425.1,1463.3 417,1443.3 425.1,1448.1 433.2,1443.3 			"/>
		</g>
	</g>
</g>
<g>
	<g>
		<line class="st6" x1="425.1" y1="1500" x2="425.1" y2="1535.7"/>
		<g>
			<polygon points="425.1,1549.9 417,1529.9 425.1,1534.7 433.2,1529.9 			"/>
		</g>
	</g>
</g>
<g>
	<g>
		<line class="st6" x1="425.1" y1="1584.7" x2="425.1" y2="1615.1"/>
		<g>
			<polygon points="425.1,1629.2 417,1609.3 425.1,1614 433.2,1609.3 			"/>
		</g>
	</g>
</g>
<g>
	<g>
		<line class="st6" x1="425.1" y1="1670.4" x2="425.1" y2="1697.9"/>
		<g>
			<polygon points="425.1,1712 417,1692.1 425.1,1696.8 433.2,1692.1 			"/>
		</g>
	</g>
</g>
<g>
	<g>
		<line class="st6" x1="729.5" y1="1151" x2="729.5" y2="1174.8"/>
		<g>
			<polygon points="729.5,1188.9 721.4,1169 729.5,1173.7 737.6,1169 			"/>
		</g>
	</g>
</g>
<g>
	<g>
		<line class="st6" x1="729.5" y1="1226.3" x2="729.5" y2="1263.1"/>
		<g>
			<polygon points="729.5,1277.2 721.4,1257.3 729.5,1262 737.6,1257.3 			"/>
		</g>
	</g>
</g>
<line class="st7" x1="729.5" y1="1313.7" x2="729.5" y2="1358.7"/>
<g>
	<g>
		<line class="st6" x1="729.5" y1="1057.1" x2="729.5" y2="1097.7"/>
		<g>
			<polygon points="729.5,1111.8 721.4,1091.9 729.5,1096.6 737.6,1091.9 			"/>
		</g>
	</g>
</g>
<g>
	<g>
		<line class="st6" x1="425.1" y1="1342.7" x2="425.1" y2="1373.6"/>
		<g>
			<polygon points="425.1,1387.8 417,1367.8 425.1,1372.6 433.2,1367.8 			"/>
		</g>
	</g>
</g>
<g>
	<g>
		<line class="st6" x1="215.2" y1="207.2" x2="319.4" y2="207.2"/>
		<g>
			<polygon points="313.7,214.6 316.9,207.2 313.7,199.8 331.3,207.2 			"/>
		</g>
	</g>
</g>
<g>
	<g>
		<line class="st6" x1="7.2" y1="61.7" x2="123.8" y2="61.7"/>
		<g>
			<polygon points="137.9,61.7 118,69.9 122.7,61.7 118,53.6 			"/>
		</g>
	</g>
</g>
<line class="st7" x1="7.2" y1="355" x2="21.8" y2="355"/>
<line class="st7" x1="540.8" y1="337.3" x2="656.9" y2="337.3"/>
<g>
	<g>
		<line class="st6" x1="342" y1="812.9" x2="291.5" y2="812.9"/>
		<g>
			<polygon points="277.4,812.9 297.3,804.8 292.6,812.9 297.3,821 			"/>
		</g>
	</g>
</g>
<g>
	<g>
		<line class="st6" x1="200" y1="933.1" x2="348.1" y2="933.1"/>
		<g>
			<polygon points="362.2,933.1 342.3,941.2 347,933.1 342.3,925 			"/>
		</g>
	</g>
</g>
<g>
	<g>
		<line class="st6" x1="519.5" y1="1038.8" x2="577.5" y2="1038.8"/>
		<g>
			<polygon points="591.6,1038.8 571.7,1046.9 576.4,1038.8 571.7,1030.7 			"/>
		</g>
	</g>
</g>
<g>
	<g>
		<line class="st6" x1="570.5" y1="1732.5" x2="628.5" y2="1732.5"/>
		<g>
			<polygon points="642.6,1732.5 622.7,1740.6 627.4,1732.5 622.7,1724.4 			"/>
		</g>
	</g>
</g>
<g>
	<g>
		<line class="st6" x1="439.2" y1="1358.7" x2="729.5" y2="1358.7"/>
		<g>
			<polygon points="425.1,1358.7 445,1366.8 440.3,1358.7 445,1350.5 			"/>
		</g>
	</g>
</g>
<g>
	<g>
		<line class="st6" x1="532.7" y1="582.9" x2="698.7" y2="582.9"/>
		<g>
			<polygon points="712.8,582.9 692.9,591 697.6,582.9 692.9,574.8 			"/>
		</g>
	</g>
</g>
<g>
	<g>
		<line class="st6" x1="656.9" y1="713.4" x2="550.1" y2="713.4"/>
		<g>
			<polygon points="536,713.4 555.9,705.3 551.2,713.4 555.9,721.5 			"/>
		</g>
	</g>
</g>
<g>
	<g>
		<line class="st6" x1="138.9" y1="246.5" x2="138.9" y2="326.8"/>
		<g>
			<polygon points="131.5,321.1 138.9,324.3 146.3,321.1 138.9,338.7 			"/>
		</g>
	</g>
</g>
<line class="st7" x1="7.2" y1="61.7" x2="7.2" y2="355"/>
<g>
	<g>
		<line class="st6" x1="105.8" y1="582.9" x2="301.9" y2="582.9"/>
		<g>
			<polygon points="316,582.9 296.1,591 300.8,582.9 296.1,574.8 			"/>
		</g>
	</g>
</g>
<line class="st7" x1="105.8" y1="1730.3" x2="279.2" y2="1730.3"/>
<line class="st7" x1="105.8" y1="582.9" x2="105.8" y2="1730.3"/>
<line class="st7" x1="200" y1="831.2" x2="200" y2="933.1"/>
<line class="st7" x1="656.9" y1="337.3" x2="656.9" y2="578.1"/>
<line class="st7" x1="656.9" y1="588.1" x2="656.9" y2="713.4"/>
</svg>
